<svg xmlns="http://www.w3.org/2000/svg" xmlns:xlink="http://www.w3.org/1999/xlink" viewBox="0,0,256,256" width="30px" height="30px" fill-rule="nonzero"><g fill="#ffffff" fill-rule="nonzero" stroke="none" stroke-width="1" stroke-linecap="butt" stroke-linejoin="miter" stroke-miterlimit="10" stroke-dasharray="" stroke-dashoffset="0" font-family="none" font-weight="none" font-size="none" text-anchor="none" style="mix-blend-mode: normal"><g transform="scale(8.53333,8.53333)"><path d="M14.98438,0.98633c-0.55152,0.00862 -0.99193,0.46214 -0.98437,1.01367v1.05078c-5.81776,0.48379 -10.46543,5.13146 -10.94922,10.94922h-1.05078c-0.36064,-0.0051 -0.69608,0.18438 -0.87789,0.49587c-0.18181,0.3115 -0.18181,0.69676 0,1.00825c0.18181,0.3115 0.51725,0.50097 0.87789,0.49587h1.05078c0.48379,5.81775 5.13146,10.46543 10.94922,10.94922v1.05078c-0.0051,0.36064 0.18438,0.69608 0.49587,0.87789c0.3115,0.18181 0.69676,0.18181 1.00825,0c0.3115,-0.18181 0.50097,-0.51725 0.49587,-0.87789v-1.05078c5.81775,-0.48379 10.46543,-5.13146 10.94922,-10.94922h1.05078c0.36064,0.0051 0.69608,-0.18438 0.87789,-0.49587c0.18181,-0.3115 0.18181,-0.69676 0,-1.00825c-0.18181,-0.3115 -0.51725,-0.50097 -0.87789,-0.49587h-1.05078c-0.48379,-5.81776 -5.13146,-10.46543 -10.94922,-10.94922v-1.05078c0.0037,-0.2703 -0.10218,-0.53059 -0.29351,-0.72155c-0.19133,-0.19097 -0.45182,-0.29634 -0.72212,-0.29212zM14,5.04883v2.01953c-3.60838,0.45406 -6.47758,3.32326 -6.93164,6.93164h-2.01953c0.46764,-4.73295 4.21822,-8.48354 8.95117,-8.95117zM16,5.04883c4.73295,0.46764 8.48354,4.21822 8.95117,8.95117h-2.01953c-0.45406,-3.60838 -3.32326,-6.47758 -6.93164,-6.93164zM14.00391,9.08789c0.04629,0.51561 0.47841,0.91068 0.99609,0.91068c0.51769,0 0.9498,-0.39506 0.99609,-0.91068c2.5222,0.41845 4.49757,2.39382 4.91602,4.91602c-0.51561,0.04629 -0.91068,0.47841 -0.91068,0.99609c0,0.51769 0.39506,0.9498 0.91068,0.99609c-0.41845,2.5222 -2.39382,4.49757 -4.91602,4.91602c-0.03926,-0.52763 -0.48269,-0.93339 -1.01172,-0.92578c-0.51701,0.00873 -0.94212,0.41012 -0.98047,0.92578c-2.52219,-0.41845 -4.49757,-2.39382 -4.91602,-4.91602c0.51561,-0.04629 0.91068,-0.47841 0.91068,-0.99609c0,-0.51769 -0.39506,-0.9498 -0.91068,-0.99609c0.41845,-2.52219 2.39382,-4.49757 4.91602,-4.91602zM15,13c-1.10457,0 -2,0.89543 -2,2c0,1.10457 0.89543,2 2,2c1.10457,0 2,-0.89543 2,-2c0,-1.10457 -0.89543,-2 -2,-2zM5.04883,16h2.01953c0.45406,3.60838 3.32326,6.47758 6.93164,6.93164v2.01953c-4.73295,-0.46764 -8.48354,-4.21822 -8.95117,-8.95117zM22.93164,16h2.01953c-0.46764,4.73295 -4.21822,8.48354 -8.95117,8.95117v-2.01953c3.60838,-0.45406 6.47758,-3.32326 6.93164,-6.93164z"></path></g></g></svg>