<svg xmlns="http://www.w3.org/2000/svg" viewBox="0 0 64 64"><path d="M58 50H6a4.004 4.004 0 0 0-4 4v3a2.002 2.002 0 0 0 2 2h56a2.002 2.002 0 0 0 2-2v-3a4.004 4.004 0 0 0-4-4zm0-2a5.998 5.998 0 0 1 .708.046A27.057 27.057 0 0 0 36.123 25.31a27.576 27.576 0 0 0-8.244 0A27.057 27.057 0 0 0 5.3 48.044 6.021 6.021 0 0 1 6 48zM27.575 23.334a29.568 29.568 0 0 1 8.854.001c.66.101 1.31.237 1.956.384A6.577 6.577 0 0 0 38.5 22.5a6.5 6.5 0 1 0-12.886 1.217c.647-.145 1.298-.28 1.961-.383zm-4.2-9.553a1 1 0 1 0 1.25-1.562l-5-4a1 1 0 1 0-1.25 1.562zM40.001 14a.998.998 0 0 0 .624-.22l5-4a1 1 0 1 0-1.25-1.56l-5 4a1 1 0 0 0 .626 1.78zM32 11a1 1 0 0 0 1-1V6a1 1 0 0 0-2 0v4a1 1 0 0 0 1 1z"/></svg>