<svg xmlns="http://www.w3.org/2000/svg" viewBox="0 0 861.88 950.08"><defs><style>.cls-1{fill:#fff;}.cls-2{fill:#21d06d;}</style></defs><g id="Layer_2" data-name="Layer 2"><g id="Layer_1-2" data-name="Layer 1"><path class="cls-1" d="M79.38,732.92V352.26H24.63v-63.5H210.77v63.5H156V732.92h54.75v63.51H24.63V732.92Z"/><path class="cls-1" d="M373.17,732.92V352.26H300.54v-63.5h173.3L696.53,683.38V352.26h-71.9v-63.5H833v63.5H758.2V801.53H679.54l-243.6-433.3V732.92h72.63v63.51h-208V732.92Z"/><path class="cls-2" d="M861.78,109.88l-6.26-60.24a17.41,17.41,0,0,0-19.13-15.49l-216,22.42-4.51-44A14,14,0,0,0,600.51.07L267.34,34.59a14.09,14.09,0,0,0-12.53,15.49l4.51,43.86L31.68,117.57a17.42,17.42,0,0,0-15.5,19.13l6.27,60.23a17.39,17.39,0,0,0,19.12,15.5L846.17,129A17.4,17.4,0,0,0,861.78,109.88ZM288.56,68.66a14.05,14.05,0,0,1,12.53-15.39l274-28.47a14.1,14.1,0,0,1,15.5,12.53l2.2,22.1.44,3.84L291.2,94.6l-.44-3.85Z"/><rect class="cls-2" y="854.66" width="860.91" height="95.42" rx="12.25"/></g></g></svg>