<svg xmlns="http://www.w3.org/2000/svg" viewBox="0 0 512 512"><path d="M437.11 74.98c-99.974-99.974-262.064-99.973-362.038.001-12.09-12.09-32.776-5.827-36.129 10.939l-14.142 70.71c-2.996 14.979 10.211 28.186 25.19 25.19l70.711-14.142c16.766-3.353 23.029-24.039 10.939-36.129 68.622-68.622 180.279-68.622 248.901-.001 68.9 68.899 68.9 180.003 0 248.903-68.623 68.622-180.279 68.622-248.901-.001C97.329 346.14 80.174 301.07 80.174 256h-.082c0-22.215-18.109-40.2-40.37-39.998-22.076.2-39.694 18.688-39.629 40.765.194 65.26 25.187 130.46 74.98 180.253 99.974 99.974 262.064 99.974 362.038.001 99.729-99.73 99.729-262.312-.001-362.041z"/><path d="m336.837 267.978-50.746-29.298v-88.596c0-16.569-13.431-30-30-30-16.569 0-30 13.431-30 30V256c0 11.103 6.036 20.79 15.002 25.978l-.002.003 65.746 37.958c14.349 8.284 32.696 3.368 40.981-10.981 8.284-14.348 3.368-32.696-10.981-40.98z"/></svg>