<svg xmlns="http://www.w3.org/2000/svg" xmlns:xlink="http://www.w3.org/1999/xlink" viewBox="0,0,256,256" width="50px" height="50px" fill-rule="nonzero"><g fill="#ffffff" fill-rule="nonzero" stroke="none" stroke-width="1" stroke-linecap="butt" stroke-linejoin="miter" stroke-miterlimit="10" stroke-dasharray="" stroke-dashoffset="0" font-family="none" font-weight="none" font-size="none" text-anchor="none" style="mix-blend-mode: normal"><g transform="scale(5.12,5.12)"><path d="M38.19531,30.01953c-0.72656,-0.16406 -3.19922,-2.73828 -5.39844,-5.625l-0.08984,-0.10156c-1.01953,-1.02344 -2.29297,-2.29297 -4.70703,-2.29297h-8.98828c-1.82812,0 -3.01172,1.13672 -3.01172,2.89453v5.10547h-12c-2.50391,0 -4,1.49609 -4,4v8.30859c0,1.53516 1.28906,2.69141 3,2.69141h2.08984c0.48047,2.83203 2.94141,5 5.91016,5c2.96875,0 5.42969,-2.16797 5.91016,-5h16.17969c0.48047,2.83203 2.94141,5 5.91016,5c2.96875,0 5.43359,-2.16797 5.91016,-5h2.08984c1.59766,0 3,-1.40234 3,-3v-6c0,-3.44531 -9.83203,-5.58594 -11.80469,-5.98047zM31.24609,25.66016c0.8125,1.0625 2.28516,2.91016 3.73828,4.33984h-9.98437v-6h3c1.55859,0 2.3125,0.73047 3.24609,1.66016zM18,24.89453c0,-0.35547 0,-0.89453 1.01172,-0.89453h3.98828v6h-5zM11,48c-2.20703,0 -4,-1.79297 -4,-4c0,-2.20703 1.79297,-4 4,-4c2.20703,0 4,1.79297 4,4c0,2.20703 -1.79297,4 -4,4zM39,48c-2.20703,0 -4,-1.79297 -4,-4c0,-2.20703 1.79297,-4 4,-4c2.20703,0 4,1.79297 4,4c0,2.20703 -1.79297,4 -4,4z"></path></g></g></svg>