<svg xmlns="http://www.w3.org/2000/svg" viewBox="0 0 100 100"><path d="M80.27 33.5h-4.5c-1.1 0-2 .9-2 2s.9 2 2 2h8c.16 0 .32-.03.47-.06.05-.01.09-.03.13-.04.11-.04.22-.08.32-.13.04-.02.08-.04.12-.07.12-.07.23-.16.33-.25.01-.01.03-.02.04-.03a2 2 0 0 0 .28-.37c.01-.01.03-.02.03-.04l7.69-13.06c2-3.41 2.1-7.54.27-11.07-1.74-3.35-5-5.54-8.7-5.84-.65-.05-1.31-.05-1.96 0-3.7.3-6.96 2.49-8.7 5.84-1.83 3.53-1.73 7.66.27 11.07l5.91 10.05zm1.54-16.39c.02-.13.06-.25.11-.38.05-.12.12-.23.19-.34.07-.11.15-.21.25-.3.09-.1.19-.18.3-.25s.22-.14.34-.19c.12-.05.25-.09.38-.11.65-.13 1.34.08 1.8.55a1.983 1.983 0 0 1 0 2.82 1.966 1.966 0 0 1-1.8.55c-.13-.02-.26-.06-.38-.11s-.23-.11-.34-.19c-.11-.07-.21-.15-.3-.25-.1-.09-.18-.19-.25-.3-.07-.11-.14-.22-.19-.34-.05-.12-.09-.25-.11-.38-.03-.13-.04-.26-.04-.39s.01-.26.04-.39zM23.77 64.5c0 1.65-1.35 3-3 3s-3-1.35-3-3 1.35-3 3-3 3 1.35 3 3zm38 27c0 1.1-.9 2-2 2h-8c-1.1 0-2-.9-2-2s.9-2 2-2h8c1.11 0 2 .89 2 2zm-16 0c0 1.1-.9 2-2 2h-8c-1.1 0-2-.9-2-2s.9-2 2-2h8c1.11 0 2 .89 2 2zm-18-2h-3.54l9.93-17.21c2.78-4.82 2.87-10.66.23-15.61-2.53-4.74-7.19-7.78-12.46-8.14-.77-.05-1.55-.05-2.32 0-5.27.36-9.93 3.4-12.46 8.14-2.64 4.95-2.55 10.79.23 15.61L19.04 92.5c.01.01.02.03.03.04.08.14.18.26.29.38a2 2 0 0 0 .37.28c.04.02.07.04.11.06.11.06.22.1.33.14.04.01.08.03.12.04.16.03.32.06.48.06h7a2 2 0 1 0 0-4zm-14-25c0-3.86 3.14-7 7-7s7 3.14 7 7-3.14 7-7 7-7-3.14-7-7zm63.89 26.15a2 2 0 0 1-1.36 2.48c-.82.24-1.67.36-2.54.36h-6c-1.1 0-2-.9-2-2s.9-2 2-2h6c.48 0 .96-.07 1.41-.2 1.07-.31 2.18.3 2.49 1.36zM87.77 49.5c0 1.1-.9 2-2 2h-8c-1.1 0-2-.9-2-2s.9-2 2-2h8a2 2 0 0 1 2 2zm-5 35c0 .42-.03.85-.09 1.27a2 2 0 0 1-3.96-.56c.03-.24.05-.48.05-.72 0-1.71-.86-3.28-2.3-4.21-.93-.6-1.2-1.83-.6-2.76.6-.93 1.83-1.2 2.76-.6a8.985 8.985 0 0 1 4.14 7.58zm12-28c0 2.17-.78 4.26-2.2 5.9a1.997 1.997 0 0 1-2.82.2c-.83-.72-.92-1.99-.2-2.82.79-.91 1.22-2.07 1.22-3.27 0-.73-.15-1.42-.45-2.08-.46-1-.02-2.19.99-2.65 1-.46 2.19-.02 2.65.99.54 1.16.81 2.42.81 3.73zm-9 7c0 1.1-.9 2-2 2h-8c-1.1 0-2-.9-2-2s.9-2 2-2h8c1.11 0 2 .89 2 2zm-48.8-15.11a8.998 8.998 0 0 1-2.2-5.89c0-1.3.27-2.56.81-3.74.46-1 1.65-1.45 2.65-.99 1 .46 1.45 1.65.99 2.65-.3.65-.45 1.35-.45 2.08 0 1.2.43 2.37 1.22 3.27.72.83.63 2.1-.2 2.82-.38.33-.84.49-1.31.49-.56 0-1.12-.23-1.51-.69zm22.8 29.11c0-1.1.9-2 2-2h8c1.1 0 2 .9 2 2s-.9 2-2 2h-8a2 2 0 0 1-2-2zm8-12h-8c-1.1 0-2-.9-2-2s.9-2 2-2h8a2 2 0 1 1 0 4zm-10-30c0-1.1.9-2 2-2h8c1.1 0 2 .9 2 2s-.9 2-2 2h-8c-1.1 0-2-.9-2-2zm12 12c1.1 0 2 .9 2 2s-.9 2-2 2h-8c-1.1 0-2-.9-2-2s.9-2 2-2h8zm-24.8 28.89c-.72-.83-.63-2.1.2-2.82s2.1-.63 2.82.2c.95 1.1 2.33 1.73 3.78 1.73h2c1.1 0 2 .9 2 2s-.9 2-2 2h-2c-2.61 0-5.09-1.13-6.8-3.11zm.43-6.8c-.28 0-.56-.06-.83-.18-1-.46-1.45-1.65-.99-2.65a9.029 9.029 0 0 1 8.19-5.26 2 2 0 1 1 0 4c-1.95 0-3.74 1.15-4.55 2.92-.34.74-1.06 1.17-1.82 1.17zm8.37-22.09c1.1 0 2 .9 2 2s-.9 2-2 2h-8c-1.1 0-2-.9-2-2s.9-2 2-2h8zm-12-12c0-1.1.9-2 2-2h8c1.1 0 2 .9 2 2s-.9 2-2 2h-8c-1.1 0-2-.9-2-2z"/></svg>