<?xml version="1.0" encoding="iso-8859-1"?><!-- Generator: Adobe Illustrator 22.1.0, SVG Export Plug-In . SVG Version: 6.00 Build 0)  --><svg xmlns="http://www.w3.org/2000/svg" xmlns:xlink="http://www.w3.org/1999/xlink" viewBox="0 0 30 30" width="30px" height="30px"><path d="M19.727,18.594c-0.371-0.217-0.826-0.213-1.195,0.006l-1.868,1.113c-0.418,0.249-0.94,0.22-1.324-0.079c-0.663-0.518-1.73-1.389-2.659-2.317c-0.929-0.929-1.8-1.996-2.317-2.659c-0.299-0.383-0.329-0.906-0.079-1.324l1.113-1.868c0.22-0.369,0.222-0.828,0.005-1.199L8.661,5.585C8.395,5.133,7.868,4.91,7.357,5.035c-0.496,0.121-1.139,0.415-1.814,1.09c-2.113,2.113-3.235,5.676,4.71,13.622s11.508,6.824,13.622,4.71c0.677-0.677,0.97-1.321,1.091-1.818c0.123-0.509-0.096-1.034-0.548-1.298C23.29,20.681,20.856,19.255,19.727,18.594z"/><path style="fill:#ffffff;stroke:#ffffff;stroke-width:2;stroke-linecap:round;stroke-miterlimit:10;" d="M16,8c3.314,0,6,2.686,6,6"/><path style="fill:#ffffff;stroke:#ffffff;stroke-width:2;stroke-linecap:round;stroke-miterlimit:10;" d="M16,12c1.105,0,2,0.895,2,2"/><path style="fill:#ffffff;stroke:#ffffff;stroke-width:2;stroke-linecap:round;stroke-miterlimit:10;" d="M16,4c5.523,0,10,4.477,10,10"/></svg>